# xmcd
#
# Track frame offsets: 
#        150
#        10800
#        36775
#        51150
#        65725
#        85765
#        100550
#        116065
#        137172
#        165117
#        176752
#        204757
#
# Disc length: 2922 seconds
#
# Revision: 2
# Processed by: cddbd v1.5.2PL0 Copyright (c) Steve Scherf et al.
# Submitted via: ExactAudioCopy v0.95b4
#
DISCID=930b680c
DTITLE=Wiggins, "Detroit" Gary - Acoustic Soul
DYEAR=1993
DGENRE=Jazz
TTITLE0=Let's go to the Blues Cafe
TTITLE1=Nobody knows you when you down and out
TTITLE2=Walk into the night
TTITLE3=Lift every voice
TTITLE4=Jazz me blue
TTITLE5=Time for you
TTITLE6=Nothing to explain
TTITLE7=At the backdoor
TTITLE8=Sugar
TTITLE9=Stagger Lee
TTITLE10=Silent night
TTITLE11=Jingle bells
EXTD=
EXTT0=
EXTT1=
EXTT2=
EXTT3=
EXTT4=
EXTT5=
EXTT6=
EXTT7=
EXTT8=
EXTT9=
EXTT10=
EXTT11=
PLAYORDER=
